<svg width="1600" height="900" viewBox="0 0 1600 900" fill="none" xmlns="http://www.w3.org/2000/svg">
  <defs>
    <linearGradient id="bg" x1="0" y1="0" x2="1600" y2="900" gradientUnits="userSpaceOnUse">
      <stop stop-color="#0A0C1D"/>
      <stop offset="1" stop-color="#081226"/>
    </linearGradient>
    <linearGradient id="wave" x1="78" y1="450" x2="1120" y2="450" gradientUnits="userSpaceOnUse">
      <stop stop-color="#2538A8"/>
      <stop offset="0.25" stop-color="#57D5FF"/>
      <stop offset="0.52" stop-color="#CB73FF"/>
      <stop offset="0.76" stop-color="#6EF0FF"/>
      <stop offset="1" stop-color="#3450CA"/>
    </linearGradient>
    <linearGradient id="earStroke" x1="1150" y1="120" x2="1510" y2="780" gradientUnits="userSpaceOnUse">
      <stop stop-color="#8DF0FF"/>
      <stop offset="1" stop-color="#3BD9FF"/>
    </linearGradient>
    <radialGradient id="earGlow" cx="0" cy="0" r="1" gradientUnits="userSpaceOnUse" gradientTransform="translate(1290 430) rotate(90) scale(340 250)">
      <stop stop-color="#31D8FF" stop-opacity="0.34"/>
      <stop offset="1" stop-color="#31D8FF" stop-opacity="0"/>
    </radialGradient>
    <filter id="softGlow" x="-20%" y="-20%" width="140%" height="140%">
      <feGaussianBlur stdDeviation="10" result="blur"/>
      <feMerge>
        <feMergeNode in="blur"/>
        <feMergeNode in="SourceGraphic"/>
      </feMerge>
    </filter>
  </defs>

  <rect width="1600" height="900" fill="url(#bg)"/>
  <rect width="1600" height="900" fill="url(#earGlow)"/>

  <g opacity="0.15">
    <circle cx="1200" cy="250" r="180" stroke="#2D4F8A"/>
    <circle cx="1200" cy="250" r="250" stroke="#1D355E"/>
    <circle cx="1240" cy="600" r="240" stroke="#18304F"/>
  </g>

  <g filter="url(#softGlow)">
    <path d="M78 450C136 450 168 434 205 450C244 468 278 532 318 450C358 366 388 245 425 450C462 655 500 722 544 450C588 176 628 168 667 450C704 719 743 706 784 450C825 194 861 217 901 450C941 683 977 639 1015 450C1046 299 1086 364 1120 450" stroke="url(#wave)" stroke-width="4" stroke-linecap="round"/>
  </g>

  <g opacity="0.92">
    <rect x="96" y="398" width="3" height="104" rx="1.5" fill="#3556BC"/>
    <rect x="128" y="376" width="3" height="148" rx="1.5" fill="#3556BC"/>
    <rect x="160" y="345" width="3" height="210" rx="1.5" fill="#3D7ACF"/>
    <rect x="192" y="312" width="3" height="276" rx="1.5" fill="#55C9F2"/>
    <rect x="224" y="391" width="3" height="118" rx="1.5" fill="#4DA7EE"/>
    <rect x="256" y="368" width="3" height="164" rx="1.5" fill="#4A8EF4"/>
    <rect x="288" y="295" width="3" height="310" rx="1.5" fill="#4E7DF8"/>
    <rect x="320" y="336" width="3" height="228" rx="1.5" fill="#4D88F8"/>
    <rect x="352" y="250" width="3" height="400" rx="1.5" fill="#606EFF"/>
    <rect x="384" y="296" width="3" height="308" rx="1.5" fill="#826EFF"/>
    <rect x="416" y="182" width="3" height="536" rx="1.5" fill="#A168FF"/>
    <rect x="448" y="242" width="3" height="416" rx="1.5" fill="#B471FF"/>
    <rect x="480" y="334" width="3" height="232" rx="1.5" fill="#D27FFF"/>
    <rect x="512" y="382" width="3" height="136" rx="1.5" fill="#E18DFE"/>
    <rect x="544" y="405" width="3" height="90" rx="1.5" fill="#B585FF"/>
    <rect x="576" y="246" width="3" height="408" rx="1.5" fill="#7075FF"/>
    <rect x="608" y="140" width="3" height="620" rx="1.5" fill="#506DFF"/>
    <rect x="640" y="252" width="3" height="396" rx="1.5" fill="#547DFF"/>
    <rect x="672" y="340" width="3" height="220" rx="1.5" fill="#7990FF"/>
    <rect x="704" y="395" width="3" height="110" rx="1.5" fill="#A3AAFF"/>
    <rect x="736" y="302" width="3" height="296" rx="1.5" fill="#64DFFF"/>
    <rect x="768" y="170" width="3" height="560" rx="1.5" fill="#47E3FF"/>
    <rect x="800" y="260" width="3" height="380" rx="1.5" fill="#3CE0FF"/>
    <rect x="832" y="324" width="3" height="252" rx="1.5" fill="#43C7FF"/>
    <rect x="864" y="375" width="3" height="150" rx="1.5" fill="#4D98E8"/>
    <rect x="896" y="410" width="3" height="80" rx="1.5" fill="#5D6AD2"/>
    <rect x="928" y="392" width="3" height="116" rx="1.5" fill="#4F78D9"/>
    <rect x="960" y="360" width="3" height="180" rx="1.5" fill="#436DCE"/>
    <rect x="992" y="405" width="3" height="90" rx="1.5" fill="#3556BC"/>
  </g>

  <g filter="url(#softGlow)" opacity="0.45">
    <path d="M1080 454H1020" stroke="#79E8FF" stroke-width="4" stroke-linecap="round"/>
    <path d="M1080 486H1038" stroke="#79E8FF" stroke-width="3" stroke-linecap="round"/>
    <path d="M1080 422H1048" stroke="#79E8FF" stroke-width="3" stroke-linecap="round"/>
  </g>

  <g stroke="url(#earStroke)" stroke-width="4.2" stroke-linecap="round" stroke-linejoin="round" fill="none">
    <path d="M1196 135L1290 98L1386 126L1452 202L1484 284L1482 388L1449 470L1408 544L1342 626L1265 710L1170 776"/>
    <path d="M1260 200L1338 216L1391 262L1413 330L1408 405L1374 470L1322 517L1265 555"/>
    <path d="M1258 283L1313 303L1339 340L1334 389L1299 427L1250 445"/>
    <path d="M1278 447L1312 498L1314 562L1272 618L1208 656"/>
    <path d="M1206 655L1166 716L1180 777"/>
    <path d="M1178 772L1252 790L1334 760L1400 696"/>
    <path d="M1210 134L1174 214L1178 303L1224 387L1262 448"/>
    <path d="M1362 126L1322 184L1293 220L1258 282"/>
  </g>

  <g stroke="#9BF4FF" stroke-opacity="0.8" stroke-width="1.4">
    <path d="M1196 135L1260 200L1258 283L1210 134"/>
    <path d="M1260 200L1338 216L1313 303L1258 283"/>
    <path d="M1338 216L1391 262L1339 340L1313 303"/>
    <path d="M1391 262L1413 330L1334 389L1339 340"/>
    <path d="M1413 330L1408 405L1299 427L1334 389"/>
    <path d="M1408 405L1374 470L1278 447L1299 427"/>
    <path d="M1374 470L1322 517L1312 498L1278 447"/>
    <path d="M1322 517L1272 618L1314 562L1312 498"/>
    <path d="M1272 618L1208 656L1206 655"/>
    <path d="M1400 696L1334 760L1252 790L1178 772"/>
    <path d="M1452 202L1391 262"/>
    <path d="M1484 284L1413 330"/>
    <path d="M1482 388L1408 405"/>
    <path d="M1449 470L1374 470"/>
    <path d="M1408 544L1322 517"/>
    <path d="M1342 626L1272 618"/>
    <path d="M1265 710L1208 656"/>
  </g>

  <g fill="#D8FBFF">
    <circle cx="1196" cy="135" r="5.5"/>
    <circle cx="1290" cy="98" r="4.5"/>
    <circle cx="1386" cy="126" r="4.5"/>
    <circle cx="1452" cy="202" r="4.5"/>
    <circle cx="1484" cy="284" r="4.5"/>
    <circle cx="1482" cy="388" r="4.5"/>
    <circle cx="1449" cy="470" r="4.5"/>
    <circle cx="1408" cy="544" r="4.5"/>
    <circle cx="1342" cy="626" r="4.5"/>
    <circle cx="1265" cy="710" r="4.5"/>
    <circle cx="1170" cy="776" r="5.5"/>
    <circle cx="1260" cy="200" r="4.5"/>
    <circle cx="1338" cy="216" r="4.5"/>
    <circle cx="1391" cy="262" r="4.5"/>
    <circle cx="1413" cy="330" r="4.5"/>
    <circle cx="1408" cy="405" r="4.5"/>
    <circle cx="1374" cy="470" r="4.5"/>
    <circle cx="1322" cy="517" r="4.5"/>
    <circle cx="1265" cy="555" r="4.5"/>
    <circle cx="1258" cy="283" r="4.5"/>
    <circle cx="1313" cy="303" r="4.5"/>
    <circle cx="1339" cy="340" r="4.5"/>
    <circle cx="1334" cy="389" r="4.5"/>
    <circle cx="1299" cy="427" r="4.5"/>
    <circle cx="1250" cy="445" r="4.5"/>
    <circle cx="1278" cy="447" r="4.5"/>
    <circle cx="1312" cy="498" r="4.5"/>
    <circle cx="1314" cy="562" r="4.5"/>
    <circle cx="1272" cy="618" r="4.5"/>
    <circle cx="1208" cy="656" r="4.5"/>
    <circle cx="1178" cy="772" r="4.5"/>
    <circle cx="1252" cy="790" r="4.5"/>
    <circle cx="1334" cy="760" r="4.5"/>
    <circle cx="1400" cy="696" r="4.5"/>
    <circle cx="1210" cy="134" r="4.5"/>
    <circle cx="1174" cy="214" r="4.5"/>
    <circle cx="1178" cy="303" r="4.5"/>
    <circle cx="1224" cy="387" r="4.5"/>
  </g>
</svg>
